<svg width="120" height="37" viewBox="0 0 130 37" fill="none" xmlns="http://www.w3.org/2000/svg">
<path d="M13.1406 13.3333V20.7083C13.1354 21.6302 12.7292 22.1146 11.9896 22.1146C11.2813 22.1146 10.849 21.6615 10.8229 20.8333H8.25521C8.24479 23.1302 9.84896 24.1458 11.8438 24.1458C14.1042 24.1458 15.6771 22.7865 15.6823 20.7083V13.3333H13.1406ZM19.7547 24L20.4579 21.7604H24.1402L24.8433 24H27.6141L24.0152 13.3333H20.5829L16.9839 24H19.7547ZM21.0724 19.8021L22.2547 16.0208H22.3381L23.5256 19.8021H21.0724ZM28.9092 24H31.4873V20.349H32.8103L34.7582 24H37.5707L35.3571 19.9375C36.529 19.4062 37.2061 18.3594 37.2061 16.8854C37.2061 14.6927 35.7113 13.3333 33.3155 13.3333H28.9092V24ZM31.4873 18.3177V15.4115H32.7582C33.9144 15.4115 34.5342 15.8958 34.5342 16.8854C34.5342 17.875 33.9144 18.3177 32.7582 18.3177H31.4873ZM40.8736 13.3333H37.9882L41.5871 24H45.0194L48.6184 13.3333H45.733L43.3476 21.1458H43.259L40.8736 13.3333ZM52.4916 13.3333H49.9135V24H52.4916V13.3333ZM60.0224 16.5312H62.4911C62.4703 14.5365 60.8818 13.1875 58.4026 13.1875C55.9651 13.1875 54.2099 14.5156 54.2255 16.5C54.2203 18.1198 55.3557 19.0312 57.1995 19.4531L58.3141 19.7135C59.4859 19.9844 60.012 20.3021 60.0224 20.901C60.012 21.5521 59.4026 22.0052 58.3661 22.0052C57.2255 22.0052 56.4755 21.474 56.4182 20.4479H53.9495C53.9807 22.9427 55.7151 24.1354 58.3974 24.1354C61.0536 24.1354 62.6266 22.9323 62.637 20.9062C62.6266 19.2031 61.4755 18.1615 59.3714 17.6979L58.4547 17.4896C57.4859 17.2812 56.8714 16.9583 56.8922 16.3229C56.8974 15.7396 57.3974 15.3177 58.3974 15.3177C59.4026 15.3177 59.9547 15.7708 60.0224 16.5312ZM66.4347 20.9583C67.7003 20.9583 68.7264 19.9323 68.7264 18.6667C68.7264 17.401 67.7003 16.375 66.4347 16.375C65.1691 16.375 64.143 17.401 64.143 18.6667C64.143 19.9323 65.1691 20.9583 66.4347 20.9583ZM76.3144 16.5312H78.7832C78.7623 14.5365 77.1738 13.1875 74.6946 13.1875C72.2571 13.1875 70.5019 14.5156 70.5176 16.5C70.5123 18.1198 71.6478 19.0312 73.4915 19.4531L74.6061 19.7135C75.778 19.9844 76.304 20.3021 76.3144 20.901C76.304 21.5521 75.6946 22.0052 74.6582 22.0052C73.5176 22.0052 72.7676 21.474 72.7103 20.4479H70.2415C70.2728 22.9427 72.0071 24.1354 74.6894 24.1354C77.3457 24.1354 78.9186 22.9323 78.929 20.9062C78.9186 19.2031 77.7676 18.1615 75.6634 17.6979L74.7467 17.4896C73.778 17.2812 73.1634 16.9583 73.1842 16.3229C73.1894 15.7396 73.6894 15.3177 74.6894 15.3177C75.6946 15.3177 76.2467 15.7708 76.3144 16.5312ZM80.3778 24H82.9559V19.7135H87.159V24H89.7319V13.3333H87.159V17.6146H82.9559V13.3333H80.3778V24ZM93.8031 24L94.5062 21.7604H98.1885L98.8916 24H101.662L98.0635 13.3333H94.6312L91.0322 24H93.8031ZM95.1208 19.8021L96.3031 16.0208H96.3864L97.5739 19.8021H95.1208ZM102.958 24H105.536V20.349H106.859L108.807 24H111.619L109.405 19.9375C110.577 19.4062 111.254 18.3594 111.254 16.8854C111.254 14.6927 109.76 13.3333 107.364 13.3333H102.958V24ZM105.536 18.3177V15.4115H106.807C107.963 15.4115 108.583 15.8958 108.583 16.8854C108.583 17.875 107.963 18.3177 106.807 18.3177H105.536ZM112.815 24H120.253V21.9062H115.393V19.7135H119.872V17.6146H115.393V15.4271H120.253V13.3333H112.815V24Z" fill="white"/>
<rect x="2" y="2" width="126" height="33" stroke="#E5E7EB" stroke-width="2.75"/>
</svg>
