<svg width="512" height="512" viewBox="0 0 512 512" fill="none" xmlns="http://www.w3.org/2000/svg">
<rect x="25.6" y="25.6" width="460.8" height="460.8" fill="#A67FEA"/>
<path d="M182.466 155.467V294.886C182.369 314.12 173.777 324.273 158.156 324.273C143.413 324.273 133.845 315.096 133.553 299.182H91.473C91.2778 339.113 119.786 358.152 156.008 358.152C196.525 358.152 224.155 333.646 224.253 294.886V155.467H182.466Z" fill="black"/>
<rect x="129.844" y="152.167" width="94.0996" height="35.1695" fill="black"/>
<path d="M372.18 211.237H412.698C412.112 175.601 382.822 150.998 338.302 150.998C294.465 150.998 262.344 175.21 262.539 211.53C262.442 241.014 283.237 257.905 317.018 266.008L338.79 271.476C360.562 276.748 372.669 282.996 372.766 296.47C372.669 311.114 358.805 321.073 337.326 321.073C315.358 321.073 299.542 310.919 298.175 290.905H257.267C258.341 334.156 289.291 356.513 337.814 356.513C386.63 356.513 415.334 333.179 415.432 296.567C415.334 263.275 390.242 245.603 355.485 237.793L337.521 233.497C320.142 229.494 305.595 223.05 305.888 208.698C305.888 195.811 317.311 186.34 338.009 186.34C358.219 186.34 370.618 195.518 372.18 211.237Z" fill="black"/>
<rect x="25.6" y="25.6" width="460.8" height="460.8" stroke="black" stroke-width="51.2"/>
</svg>
